<svg width="18" height="18" viewBox="0 0 18 18" fill="none" xmlns="http://www.w3.org/2000/svg">
<path d="M9 13.7812C11.6364 13.7812 13.7812 11.6364 13.7812 9C13.7812 6.36356 11.6364 4.21875 9 4.21875C6.36356 4.21875 4.21875 6.36356 4.21875 9C4.21875 11.6364 6.36356 13.7812 9 13.7812ZM9 4.78125C11.3262 4.78125 13.2188 6.67378 13.2188 9C13.2188 11.3262 11.3262 13.2188 9 13.2188C6.67378 13.2188 4.78125 11.3262 4.78125 9C4.78125 6.67378 6.67378 4.78125 9 4.78125ZM8.71875 0H9.28125V2.8125H8.71875V0ZM8.71875 15.1875H9.28125V18H8.71875V15.1875ZM15.1875 8.71875H18V9.28125H15.1875V8.71875ZM0 8.71875H2.8125V9.28125H0V8.71875ZM14.7074 2.89462L15.1051 3.29231L13.6988 4.69856L13.3012 4.30087L14.7074 2.89462ZM4.30144 13.3009L4.69913 13.6986L3.29288 15.1048L2.89519 14.7071L4.30144 13.3009ZM14.7074 15.1054L13.3012 13.6991L13.6991 13.3014L15.1054 14.7077L14.7074 15.1054ZM3.29259 2.89462L4.69884 4.30087L4.30087 4.69856L2.89462 3.29231L3.29259 2.89462Z" fill="white"/>
</svg>
