<svg width="246" height="70" viewBox="0 0 246 70" fill="none" xmlns="http://www.w3.org/2000/svg">
<path d="M241.796 8.3163C240.43 5.83403 237.514 2.85531 231.68 2.85531L165.714 2.66915C162.053 2.66915 158.515 3.91027 155.226 6.4546C154.109 7.32339 153.117 8.25422 152.186 9.30919C152.062 9.4333 151.813 9.43332 151.751 9.24715C151.503 8.56452 151.193 7.94397 150.758 7.3234C148.897 4.4688 145.794 2.79325 142.381 2.73119L40.7939 2.04858H40.6077C31.2992 2.04858 22.8595 7.5716 19.074 16.1354L2.75312 53.3695C1.38787 56.4723 1.69815 60.0095 3.4978 62.8642C5.29744 65.7188 8.46233 67.3943 11.8755 67.4563L114.269 68.139H114.455C119.978 68.139 125.253 66.2152 129.411 62.74C129.473 62.678 129.597 62.74 129.597 62.8021C129.721 63.7329 130.093 64.4776 130.342 64.9741C131.459 66.8978 133.507 68.0769 135.865 68.0769L218.276 68.0149C219.765 68.0149 223.365 67.5184 225.413 62.8021L229.198 52.6248C229.26 52.3766 229.26 52.1283 229.198 51.8801L225.288 41.4546C225.226 41.3925 225.289 41.2684 225.413 41.2684C227.398 40.5858 229.198 39.5929 230.812 38.2897C233.852 35.8074 236.148 32.8287 237.7 29.3535L241.796 19.7968C244.154 14.4599 243.099 10.6124 241.796 8.3163Z" fill="white"/>
<path d="M40.6692 1.98582H40.8553L142.442 2.66847C145.855 2.66847 148.958 4.40603 150.82 7.26064C151.192 7.88121 151.565 8.5018 151.813 9.18442C151.875 9.30854 151.937 9.37059 152.061 9.37059C152.123 9.37059 152.185 9.37056 152.247 9.30851C153.178 8.25354 154.233 7.32271 155.288 6.45391C158.577 3.97164 162.114 2.66847 165.775 2.66847L231.742 2.85463C237.575 2.85463 240.492 5.83335 241.857 8.31561C243.16 10.6117 244.215 14.4592 241.919 19.7341L237.823 29.2908C236.334 32.7659 233.976 35.7447 230.935 38.227C229.322 39.5301 227.46 40.5851 225.536 41.2057C225.474 41.2057 225.412 41.3298 225.412 41.3918L229.322 51.8174C229.384 52.0656 229.384 52.3138 229.322 52.562L225.536 62.7394C223.55 67.4557 219.889 67.9521 218.4 67.9521L135.988 68.0142C133.63 68.0142 131.582 66.8972 130.465 64.9113C130.155 64.4149 129.845 63.6702 129.721 62.7394C129.721 62.6773 129.658 62.6152 129.596 62.6152H129.534C125.377 66.0904 120.102 68.0142 114.579 68.0142H114.393L11.999 67.3315C8.58584 67.3315 5.48301 65.594 3.62131 62.7394C1.75961 59.8847 1.51138 56.3475 2.87663 53.2447L19.1975 16.0107C22.8589 7.50889 31.2986 1.98582 40.6692 1.98582ZM40.6692 0.0620794C30.5539 0.0620794 21.4316 6.01952 17.3358 15.266L1.01493 52.5C-0.598547 56.2234 -0.288263 60.4432 1.94578 63.8564C4.11776 67.2695 7.90322 69.3174 11.9369 69.3174L114.33 70H114.517C119.543 70 124.508 68.5106 128.666 65.7181C128.728 65.7801 128.728 65.8422 128.79 65.9042C130.279 68.4486 132.885 69.9379 135.988 69.9379L218.4 69.8759C219.827 69.8759 224.791 69.4415 227.274 63.484V63.422V63.3599L231.059 53.1826C231.307 52.5 231.307 51.7553 231.059 51.0727L227.77 42.3227C229.322 41.6401 230.749 40.7092 232.114 39.6543C235.403 36.9858 237.885 33.7589 239.561 29.9734L243.657 20.4167C246.201 14.4592 244.96 9.99116 243.471 7.32272C241.174 3.16492 236.955 0.868809 231.68 0.868809L165.713 0.682647C161.618 0.682647 157.646 2.10996 154.047 4.84045C153.488 5.27485 152.93 5.70922 152.433 6.20567C152.433 6.20567 152.433 6.14363 152.371 6.14363C150.199 2.73051 146.414 0.682647 142.38 0.682647L40.7933 0L40.6692 0.0620794Z" fill="#223C2B"/>
<path d="M165.216 35.9308H174.277L172.539 40.2128C172.353 40.7713 171.918 41.0195 171.298 41.0195L157.397 40.9574C157.087 40.9574 156.963 40.7712 157.087 40.461L166.271 18.9273C166.519 18.3688 166.892 18.1205 167.45 18.1205L190.784 18.1826L195.376 7.50886L165.775 7.44678C163.168 7.44678 160.624 8.37763 158.204 10.2393C155.784 12.101 153.922 14.5213 152.619 17.5L140.58 45.6737C139.897 47.2872 139.835 48.7145 140.518 49.8315C141.138 50.9486 142.317 51.5691 143.931 51.5691L171.98 51.7553C177.069 51.7553 181.041 48.4042 183.895 41.7021L190.039 27.1188H178.745C172.849 27.0567 167.512 30.5939 165.216 35.9308Z" fill="#880027"/>
<path d="M237.512 10.6741C236.395 8.68824 234.471 7.69534 231.616 7.69534L200.96 7.6333L182.095 51.7556L196.182 51.8176L202.326 37.3584H206.049L210.207 51.8176L223.983 51.8797L218.709 37.3584H218.957C222.432 37.3584 225.411 36.3655 227.831 34.3797C230.251 32.3939 232.113 30.0357 233.292 27.3052L237.388 17.7485C238.567 15.018 238.629 12.6599 237.512 10.6741ZM224.728 19.1758L221.625 26.4365C221.439 26.995 221.067 27.2432 220.508 27.2432L206.732 27.1812L210.517 18.3691L224.294 18.4311C224.852 18.3691 224.976 18.6173 224.728 19.1758Z" fill="#880027"/>
<path d="M130.653 52.3124C130.094 52.4985 124.757 52.4985 123.268 52.4985C123.206 52.4985 123.144 52.4365 123.144 52.4365C123.144 52.2503 123.144 52.0641 123.082 51.878C123.082 51.8159 123.144 51.7538 123.206 51.7538L130.467 51.8159C130.653 51.8159 130.777 51.5677 130.591 51.4436C126.433 48.1546 120.91 41.5766 119.296 39.2805C118.986 38.8461 118.862 38.6599 118.304 38.4737C117.311 38.1014 116.69 37.8531 117.373 38.9081C117.869 39.7148 118.366 40.7698 118.552 41.2042C118.552 41.2042 118.552 41.2663 118.552 41.2042C118.055 40.4595 114.952 37.1705 110.112 36.9223C105.272 36.674 102.417 39.2804 101.858 40.0251C101.796 40.0872 101.734 40.0251 101.734 39.9631C101.796 39.7148 101.983 39.2804 102.541 38.4117C103.596 36.6741 101.921 37.729 102.541 36.9223C103.162 36.1155 103.224 35.9294 101.052 35.8673C100.183 35.8673 92.4879 35.3709 83.862 34.8124L80.6351 34.6262C69.5269 33.8815 58.1085 33.1368 58.1085 33.1368C58.1085 33.1368 50.7238 32.8886 47.683 31.4613C48.7379 32.0198 49.2344 32.7024 49.7308 33.5092C49.7929 33.5712 49.7308 33.6333 49.6067 33.6333C48.9241 33.323 48.0553 33.0127 47.8691 33.0127C47.8071 33.0127 47.745 33.0748 47.8071 33.1368C48.1174 33.323 48.4277 33.5092 48.7379 33.7574C51.6546 35.8053 52.3372 36.7982 52.6475 36.9844C52.7096 37.0464 52.6475 37.1085 52.5855 37.1085L47.745 36.6741C47.1245 36.612 46.566 36.3638 46.1316 35.9294C45.2007 34.9985 43.2149 33.323 40.4223 32.3921C38.1883 31.8336 35.2716 31.2751 33.7202 31.2751C31.4862 31.2751 23.9153 31.5854 22.1777 31.5854C20.6883 31.5854 19.1989 29.8478 18.7645 29.2893L7.34611 55.2911C5.85675 58.7042 8.33902 62.4897 12.0624 62.5517L114.456 63.2343C121.903 63.2964 128.667 58.8904 131.646 52.0641C131.273 52.1262 130.963 52.1883 130.653 52.3124ZM21.1848 35.5571L19.4472 38.9081C19.3851 39.0322 19.261 39.0943 19.1369 39.0943C18.4543 39.1563 15.7238 39.2804 15.1653 39.2184C15.1032 39.2184 15.0411 39.1563 15.1032 39.0943L15.4135 38.6599L15.4755 38.5978L17.9578 38.3496C18.3302 38.2876 18.7025 38.1014 18.9507 37.7911L21.0606 35.4329C21.1227 35.4329 21.2468 35.495 21.1848 35.5571ZM45.0766 49.1475C45.0766 49.2716 44.8904 49.2716 44.8904 49.1475C44.9525 44.5553 42.284 40.2113 37.816 38.4117C33.7823 36.7982 29.3762 37.667 26.2114 40.2734C26.0872 40.3354 25.9631 40.2113 26.0872 40.1492C28.9419 36.6741 33.9684 35.3709 38.4365 37.1705C43.339 39.1563 46.0695 44.245 45.0766 49.1475ZM88.144 52.3124L62.8248 51.878C60.0323 51.5056 55.8124 50.0163 52.5855 47.0996C50.1652 44.9897 49.2344 44.1209 48.8621 43.7485C48.8 43.6865 48.8621 43.5623 48.9862 43.5623L53.7025 44.4932C54.323 44.6173 54.8195 44.9276 55.2539 45.4241C56.433 46.9134 59.6599 50.2645 64.7486 50.823C67.6652 51.1333 81.0074 51.3815 87.6475 51.7538C87.8957 51.7538 88.0819 51.7538 88.2681 51.8159C88.5163 51.8159 88.4542 52.3124 88.144 52.3124Z" fill="#223C2B"/>
<path d="M83.6767 32.9509C86.7795 33.075 88.6412 33.1991 89.0135 33.1991C89.0756 33.1991 89.0756 33.1991 89.1376 33.1991L91.2476 33.0129C91.4337 33.0129 91.4337 32.7647 91.2476 32.7027L87.4621 31.7718C87.338 31.7718 87.2139 31.7097 87.0898 31.6477C86.7174 31.3374 85.166 30.3445 81.0082 27.7381C75.361 24.2629 72.5064 23.3942 70.7689 23.0839C69.0313 22.7736 64.8114 22.4633 60.5916 22.6495C56.3717 22.8977 51.0969 24.0768 46.9391 25.1317C42.7813 26.1867 39.6164 26.9314 34.4036 28.3587C32.1696 28.9793 31.1767 29.2275 28.1359 29.5998C28.0738 29.5998 28.0738 29.7239 28.1359 29.7239C28.9426 29.6619 30.1838 29.5378 31.9834 29.4137C34.7139 29.1654 37.1341 29.0413 41.416 29.7239C44.2706 30.1583 46.0703 30.6548 47.1873 31.2133C45.1394 30.1584 43.1536 28.669 42.0987 27.8622C41.9745 27.8002 42.0987 27.614 42.2228 27.6761L43.1536 28.1105C44.5809 28.9172 46.5667 30.2204 49.7937 30.841C53.0827 31.4615 60.2192 31.7097 71.0171 32.2683C74.7405 32.4544 77.9674 32.6406 80.6979 32.7647C80.76 32.7647 80.76 32.8268 80.76 32.8888C80.6979 32.9509 80.6979 33.013 80.6359 33.075C80.3256 33.6335 80.76 34.3161 81.4426 34.3782L82.7458 34.4402C83.4905 34.5023 83.9869 33.6335 83.5525 33.0129C83.6146 33.0129 83.6146 32.8888 83.6767 32.9509ZM83.4905 29.8481L82.932 29.7239C82.932 29.7239 81.7529 29.2896 80.2635 29.0413L79.0224 28.8551C78.8983 28.8551 78.8362 28.731 78.9603 28.6069C79.0845 28.4828 79.3327 28.2346 79.643 28.1725C80.2015 27.9864 81.0082 28.0484 81.5047 28.3587C81.6908 28.4828 82.0632 28.7311 82.4976 29.0413C82.8699 29.2896 83.2423 29.5998 83.5525 29.786C83.6146 29.7239 83.5525 29.8481 83.4905 29.8481Z" fill="#223C2B"/>
<path d="M142.381 7.57046L40.7943 6.88785C33.3475 6.8258 26.5833 11.2318 23.6046 18.0581L18.7642 29.1041C19.4468 29.2283 22.0532 29.6627 23.6666 29.5386C25.5283 29.4144 28.445 28.7318 31.2996 27.863C34.1542 26.9942 37.5053 25.5669 43.4627 24.0155C49.4202 22.4641 52.2127 22.1538 52.2127 22.1538C52.2127 22.1538 59.2251 21.3471 65.679 21.5953C72.1329 21.8435 76.0425 23.519 78.3386 24.6361C80.5727 25.7531 89.8812 31.4002 90.812 31.9587C91.6187 32.0208 92.4875 32.0208 93.2943 32.1449C95.2801 32.2691 100.307 32.7034 103.658 32.9517C104.216 33.0137 102.23 33.9446 103.099 33.6343C103.844 33.3861 106.202 33.1378 106.45 33.1378C108.312 33.0758 111.787 32.7655 118.551 35.8063C123.206 37.9162 125.936 39.6538 126.867 40.3364C126.929 40.3364 126.867 40.3985 126.805 40.3985C125.688 39.84 122.709 38.5368 121.716 38.1024C120.413 37.6059 119.11 37.1095 119.73 38.0403C119.792 38.1644 119.855 38.2886 119.917 38.3506C120.599 39.4056 121.344 40.4605 122.151 41.3914C125.378 45.2389 130.466 50.5758 131.521 51.6928C131.583 51.7549 131.707 51.6928 131.707 51.6307L146.973 14.8931C148.525 11.418 146.105 7.57046 142.381 7.57046ZM129.597 45.3009C129.597 45.363 129.535 45.363 129.473 45.363C129.349 45.301 128.791 45.1768 128.791 44.9907L128.915 43.5634C128.915 43.4392 128.853 43.3151 128.667 43.2531L126.743 42.8187C126.681 42.8187 126.681 42.7566 126.743 42.7566L129.784 42.9428C129.846 42.9428 129.908 43.0048 129.908 43.129L129.597 45.3009Z" fill="#880027"/>
<path d="M144.552 53.3669H139.836C139.215 53.3669 138.657 53.5531 138.098 53.9875C137.602 54.4219 137.167 54.9184 136.919 55.5389L136.298 57.0283C136.05 57.6489 135.988 58.2074 136.236 58.5797C136.485 59.0141 136.919 59.2003 137.54 59.2003H141.387C141.511 59.2003 141.511 59.2623 141.511 59.3865L141.077 60.4414C141.015 60.5655 140.953 60.6276 140.829 60.6276H137.602C137.477 60.6276 137.477 60.5655 137.477 60.4414L137.726 59.8829H135.057L134.685 60.7517C134.437 61.3723 134.375 61.9308 134.623 62.3031C134.871 62.7375 135.305 62.9237 135.926 62.9237H140.704C141.325 62.9237 141.883 62.7375 142.38 62.3031C142.876 61.8687 143.249 61.3723 143.559 60.7517L144.18 59.2623C144.428 58.6418 144.49 58.0833 144.242 57.7109C143.993 57.2765 143.559 57.0903 142.938 57.0903H139.091C138.967 57.0903 138.967 57.0283 138.967 56.9042L139.401 55.8492C139.463 55.7251 139.525 55.663 139.649 55.663H142.876C143.001 55.663 143.001 55.7251 143.001 55.8492L142.752 56.4077H145.421L145.793 55.5389C146.041 54.9184 146.041 54.3599 145.793 53.9875C145.607 53.5531 145.173 53.3669 144.552 53.3669Z" fill="#223C2B"/>
<path d="M157.273 53.3677L155.66 57.029H151.75L153.302 53.3677H150.633L146.538 63.1106H149.144L150.757 59.3872H154.667L153.116 63.1106H155.722L159.88 53.3677H157.273Z" fill="#223C2B"/>
<path d="M163.852 53.3677L159.694 63.1106H162.362L166.458 53.3677H163.852Z" fill="#223C2B"/>
<path d="M176.947 53.3677H170.245L166.087 63.1106H168.755L169.934 60.318H174.216C174.837 60.318 175.395 60.1319 175.954 59.6975C176.45 59.2631 176.885 58.7666 177.133 58.1461L178.188 55.6017C178.312 55.2915 178.374 55.0432 178.374 54.7329C178.374 54.2985 178.25 53.9883 178.002 53.74C177.754 53.4918 177.443 53.3677 176.947 53.3677ZM175.457 55.8499L174.589 57.8358C174.527 57.9599 174.465 58.0219 174.34 58.0219H170.927L171.92 55.6638H175.333C175.395 55.6638 175.457 55.7258 175.457 55.7879C175.457 55.85 175.457 55.8499 175.457 55.8499Z" fill="#223C2B"/>
<path d="M189.481 53.3052H182.779L178.621 63.0481H181.29L182.469 60.2555H186.751C187.371 60.2555 187.93 60.0694 188.488 59.635C188.985 59.2006 189.419 58.7041 189.667 58.0836L190.722 55.5392C190.846 55.2289 190.908 54.9807 190.908 54.6704C190.908 54.236 190.784 53.9257 190.536 53.6775C190.35 53.4293 189.977 53.3052 189.481 53.3052ZM187.992 55.8495L187.123 57.8353C187.061 57.9594 186.999 58.0215 186.875 58.0215H183.462L184.454 55.6633H187.868C187.93 55.6633 187.992 55.7254 187.992 55.7874C187.992 55.8495 187.992 55.8495 187.992 55.8495Z" fill="#223C2B"/>
<path d="M195.5 53.3052L191.342 63.1101H194.011L198.169 53.3052H195.5Z" fill="#223C2B"/>
<path d="M206.112 59.1385L204.685 53.3052H202.078L197.92 63.1101H200.527L203.009 57.2768L204.56 63.1101H207.105L211.263 53.3052H208.594L206.112 59.1385Z" fill="#223C2B"/>
<path d="M217.159 59.0144H219.145L218.462 60.5658C218.4 60.6899 218.338 60.752 218.214 60.752H214.615C214.552 60.752 214.49 60.6899 214.552 60.6279L216.6 55.8495C216.662 55.7254 216.724 55.6633 216.849 55.6633H222.496L223.489 53.3052H216.911C216.352 53.3052 215.794 53.4913 215.235 53.9257C214.677 54.3601 214.304 54.8566 213.994 55.5392L211.326 61.807C211.201 62.1793 211.139 62.4896 211.326 62.7378C211.45 62.986 211.698 63.1101 212.07 63.1101H218.276C219.393 63.1101 220.262 62.3655 220.882 60.8761L222.496 57.0906H220.013C218.834 57.0286 217.655 57.8353 217.159 59.0144Z" fill="#223C2B"/>
</svg>
