<svg version="1.0" xmlns="http://www.w3.org/2000/svg"
 width="1280.000000pt" height="1280.000000pt" viewBox="0 0 1280.000000 1280.000000"
 preserveAspectRatio="xMidYMid meet">
<g transform="translate(0.000000,1280.000000) scale(0.100000,-0.100000)"
stroke="none" class="calcBoxDelivery__map__port__image">
<path d="M7678 10392 c-12 -15 -32 -44 -42 -64 -11 -20 -30 -41 -43 -47 -13
-6 -70 -11 -127 -11 -88 0 -105 3 -120 19 -9 10 -34 26 -55 36 -38 17 -40 17
-64 -1 -35 -27 -78 -107 -85 -161 -7 -43 -11 -48 -57 -73 -132 -70 -179 -77
-235 -32 -36 30 -44 32 -117 32 -44 0 -84 5 -89 10 -6 6 -36 11 -67 13 -54 2
-58 1 -101 -42 l-46 -45 -28 27 c-33 32 -76 35 -139 9 -58 -24 -84 -48 -128
-117 -36 -57 -125 -178 -189 -259 -30 -37 -31 -41 -31 -145 0 -84 5 -121 24
-181 44 -138 51 -162 45 -171 -3 -5 -22 -9 -43 -9 -34 0 -39 4 -55 40 -18 41
-89 110 -141 138 -20 10 -72 18 -157 23 -107 6 -132 10 -154 28 -34 26 -48 26
-86 0 -22 -16 -38 -20 -64 -16 -42 7 -60 -8 -94 -76 -19 -38 -26 -44 -41 -37
-20 11 -34 49 -49 130 -15 80 -38 127 -71 140 -24 10 -35 8 -81 -13 -29 -14
-67 -28 -84 -31 -33 -7 -77 -49 -109 -103 -24 -40 -33 -41 -41 -5 -4 15 -15
44 -25 64 -24 47 -61 55 -157 35 l-70 -14 -22 46 c-34 74 -36 76 -62 79 -19 2
-36 -11 -82 -63 -32 -36 -62 -65 -66 -65 -3 0 -13 12 -20 28 -22 44 -42 62
-65 62 -31 0 -41 -16 -55 -87 -13 -66 -19 -73 -40 -48 -10 13 -10 19 2 33 42
47 26 102 -30 102 -18 0 -50 -10 -71 -22 l-38 -22 -58 24 c-32 13 -74 23 -92
23 -34 -1 -35 1 -48 63 -10 53 -29 62 -141 66 -93 3 -104 5 -144 33 -45 31
-91 38 -158 23 -28 -7 -34 -5 -41 15 -12 32 -41 44 -161 67 -58 12 -114 26
-126 31 -12 7 -52 8 -100 5 -283 -22 -315 -20 -413 32 l-45 23 -65 -27 c-36
-15 -72 -32 -80 -38 -18 -14 -183 -11 -209 3 -15 8 -28 7 -48 -3 -16 -8 -73
-30 -126 -51 -113 -43 -123 -51 -166 -127 -37 -67 -54 -90 -100 -135 -27 -27
-41 -33 -76 -33 -34 0 -48 6 -71 30 -39 41 -95 42 -135 2 l-27 -28 1 -180 c2
-198 -2 -183 79 -299 26 -35 40 -69 44 -97 9 -79 61 -160 144 -221 l24 -18
-38 6 c-43 7 -67 -6 -67 -37 0 -10 22 -61 49 -112 48 -90 54 -119 31 -151 -4
-5 -13 -39 -20 -75 -14 -77 -25 -94 -50 -80 -43 23 -81 12 -127 -37 -23 -26
-43 -51 -43 -55 0 -8 -66 -76 -111 -113 -35 -30 -59 -60 -197 -245 -68 -91
-129 -172 -135 -180 -7 -8 -21 -29 -31 -45 -11 -17 -25 -34 -33 -38 -7 -4 -13
-12 -13 -18 0 -5 -34 -55 -75 -109 -41 -55 -79 -110 -85 -124 -21 -56 -21
-141 0 -260 21 -121 44 -180 89 -220 25 -23 29 -71 5 -62 -9 3 -19 6 -23 6 -4
0 -32 22 -62 50 -90 83 -128 65 -164 -80 -22 -90 -63 -182 -120 -270 -23 -36
-47 -78 -53 -95 -13 -34 -31 -194 -24 -212 2 -7 21 -22 42 -34 40 -23 47 -33
74 -118 23 -69 30 -76 91 -87 45 -8 50 -12 53 -37 4 -31 31 -52 81 -61 19 -3
52 -11 74 -17 34 -9 38 -13 33 -34 -5 -18 -1 -28 16 -39 30 -18 110 -29 159
-21 39 7 51 21 73 88 3 9 9 17 13 16 4 0 32 -29 61 -64 29 -34 68 -70 88 -80
34 -16 38 -15 97 6 l63 22 28 -27 c35 -32 64 -40 114 -32 127 19 149 19 189
-4 33 -18 51 -21 109 -17 38 2 101 13 140 24 40 11 76 18 81 14 6 -3 13 -18
16 -32 12 -47 159 -178 217 -192 84 -21 186 56 215 161 6 20 12 22 79 22 41 0
140 7 222 16 137 14 156 18 234 56 47 22 137 79 201 127 114 84 149 123 163
183 3 15 10 38 16 52 l9 25 59 -26 c57 -24 60 -25 86 -8 15 10 26 27 26 39 0
19 5 21 46 18 36 -3 50 0 68 17 l22 21 29 -30 c41 -42 67 -39 112 16 l38 46
61 -7 c48 -5 63 -3 73 9 17 20 35 20 51 1 8 -9 30 -15 59 -15 39 0 58 -8 116
-48 127 -86 164 -117 176 -147 16 -37 26 -45 61 -45 21 0 26 -4 21 -15 -8 -22
21 -50 67 -65 38 -13 43 -12 104 20 62 33 65 33 102 19 29 -11 42 -23 49 -46
13 -40 33 -61 100 -108 47 -32 61 -37 94 -32 l38 5 12 -48 c7 -27 28 -70 47
-97 19 -26 34 -50 34 -54 0 -3 -20 -19 -45 -37 -35 -25 -45 -38 -45 -60 0 -15
5 -33 10 -38 11 -11 -1 -93 -22 -147 -9 -23 -7 -31 8 -48 16 -18 26 -20 66
-15 l47 7 -6 -34 c-11 -69 31 -98 94 -66 57 29 66 26 46 -18 -8 -21 -19 -47
-23 -58 -4 -11 -13 -33 -19 -48 -14 -37 -14 -90 1 -105 7 -7 27 -12 45 -12 22
0 33 -5 33 -14 0 -8 11 -36 25 -62 14 -26 25 -55 25 -65 0 -32 36 -59 79 -59
32 0 44 -6 70 -35 17 -19 35 -35 41 -35 16 0 12 -26 -12 -76 -17 -37 -19 -50
-10 -65 15 -23 16 -66 2 -74 -27 -17 11 -125 43 -125 14 0 47 -31 47 -44 0 -4
-19 -6 -42 -4 -38 3 -44 7 -68 48 -27 46 -45 56 -85 46 -16 -4 -27 -18 -35
-43 -7 -21 -15 -41 -19 -45 -4 -4 -29 11 -56 33 -27 22 -57 45 -67 50 -24 13
-86 1 -120 -23 l-28 -19 0 35 c0 61 -50 94 -95 62 -11 -7 -33 -16 -50 -20 -65
-16 -88 -60 -100 -191 -8 -86 3 -119 49 -146 l35 -21 -54 -53 c-54 -52 -66
-80 -44 -102 17 -17 4 -30 -50 -48 -65 -21 -75 -34 -69 -95 6 -58 3 -61 -82
-79 -76 -16 -90 -32 -90 -100 0 -92 -5 -101 -56 -101 -97 0 -115 -34 -69 -134
14 -30 25 -70 25 -88 0 -19 6 -41 13 -50 31 -39 221 -128 275 -128 33 0 66 31
83 78 10 29 15 32 50 32 22 0 108 23 191 50 83 28 165 50 183 50 34 0 67 -29
101 -87 13 -24 25 -33 45 -33 29 0 35 10 63 115 26 99 25 122 -9 135 -27 10
-45 45 -45 88 l0 26 16 -22 c35 -50 108 -3 102 66 -2 31 1 36 38 56 23 12 80
50 128 84 47 34 91 62 95 62 18 0 82 85 112 146 43 92 40 115 -23 162 -29 22
-62 50 -73 63 -18 21 -17 21 15 -3 19 -15 54 -34 78 -43 23 -10 52 -30 63 -46
32 -45 65 -39 90 16 11 25 43 82 71 127 l51 82 -6 78 c-5 77 -5 78 19 78 13 0
46 9 74 20 40 16 59 18 93 11 53 -11 209 0 229 16 12 11 19 8 38 -12 29 -31
59 -32 95 -4 21 17 40 22 88 21 43 -1 67 4 79 15 24 21 56 11 117 -37 55 -44
57 -48 38 -73 -11 -16 -16 -16 -52 -4 -22 8 -70 18 -105 22 -36 3 -90 13 -121
21 -71 18 -66 18 -79 -7 -9 -16 -8 -24 4 -37 21 -24 111 -69 181 -91 l60 -19
-59 -17 c-32 -9 -67 -26 -77 -36 -44 -44 -11 -73 101 -90 47 -7 89 -16 94 -21
6 -4 17 -8 26 -8 9 0 25 -9 36 -21 25 -28 115 -73 208 -104 92 -31 180 -33
259 -6 30 11 79 22 109 26 51 6 55 5 128 -43 125 -82 194 -91 248 -31 24 27
27 28 33 12 13 -32 9 -81 -8 -113 -32 -56 -234 -178 -366 -221 -87 -28 -194
-88 -248 -139 -34 -32 -56 -78 -68 -135 -10 -54 -9 -62 7 -84 26 -36 63 -42
178 -29 123 13 135 8 183 -76 17 -31 42 -63 56 -72 32 -21 119 -23 163 -5 27
11 35 11 55 -2 22 -14 23 -20 16 -69 -4 -29 -8 -108 -8 -176 -1 -131 -3 -138
-57 -209 -38 -50 -44 -94 -18 -131 9 -13 41 -48 72 -78 63 -61 60 -60 187 -32
28 6 88 12 135 14 47 1 95 3 107 3 34 1 78 48 119 126 65 125 125 172 249 200
97 21 227 60 275 82 171 78 250 124 250 148 0 4 7 22 15 40 15 30 18 32 53 25
20 -4 57 -15 82 -24 51 -19 166 -34 320 -43 l106 -5 37 41 c20 23 38 51 38 64
2 26 2 18 -6 93 -7 56 -5 63 16 83 18 17 31 21 56 16 21 -4 36 -1 47 10 20 21
20 20 -4 69 -20 41 -84 89 -135 102 -28 7 -119 -18 -194 -53 -42 -20 -58 -23
-70 -15 -9 7 -35 24 -59 38 -42 26 -44 26 -85 10 -23 -9 -58 -31 -77 -49 -39
-36 -67 -51 -125 -67 -40 -12 -43 -11 -198 28 -40 10 -87 59 -87 90 0 15 7 45
15 67 36 102 13 161 -82 207 -37 18 -83 49 -103 68 -52 49 -102 90 -112 90 -4
0 -8 33 -8 73 0 40 -5 78 -11 84 -7 7 10 12 60 15 63 5 76 10 133 51 66 47
128 77 158 77 28 0 68 45 75 84 6 31 10 34 25 26 10 -6 35 -10 55 -10 29 0 39
5 53 30 9 16 24 30 32 30 8 0 47 23 85 50 143 101 219 130 345 130 76 0 89 3
106 21 10 12 32 28 49 37 45 24 208 92 222 92 7 0 29 -11 49 -25 40 -27 59
-30 98 -15 26 10 40 33 71 122 17 46 18 46 69 51 145 15 176 25 215 69 60 69
80 82 144 95 80 15 212 16 275 2 90 -21 145 13 162 100 5 28 17 65 26 82 13
26 14 36 4 55 -19 34 1 274 24 293 7 6 61 17 120 25 155 20 195 50 239 178 37
106 32 103 114 83 54 -13 104 -16 234 -13 158 3 166 4 211 30 54 33 88 92 88
157 0 30 7 52 25 75 27 35 55 115 55 157 0 18 -8 29 -26 38 -22 10 -25 16 -20
39 19 84 19 94 -9 165 -52 138 -57 147 -82 153 -21 6 -23 10 -17 43 16 86 16
86 68 89 78 5 146 59 146 116 0 48 -22 63 -67 47 -28 -11 -40 -11 -58 -1 -27
15 -89 97 -78 103 5 3 33 12 63 20 62 18 84 37 130 116 17 30 42 63 55 73 57
44 54 169 -5 238 l-29 34 35 38 c19 21 34 47 34 59 0 31 -58 79 -96 79 -30 0
-93 -38 -123 -73 -7 -9 -17 -17 -22 -17 -10 0 -99 115 -99 128 0 5 -15 26 -33
47 -30 33 -37 37 -93 39 -68 4 -91 14 -151 70 l-42 39 -81 -18 -81 -18 -36 36
c-19 20 -41 37 -49 37 -7 0 -28 18 -45 40 -31 39 -34 40 -92 40 -75 0 -118 21
-164 79 -53 67 -71 81 -108 81 -49 0 -75 -37 -75 -109 -1 -31 -7 -67 -14 -80
l-13 -23 -19 24 c-10 13 -54 50 -96 81 -43 32 -89 72 -104 91 -30 37 -64 119
-64 154 0 15 -14 32 -44 54 -33 22 -51 46 -68 85 -29 66 -48 73 -119 40 -30
-13 -75 -34 -101 -46 -26 -11 -71 -26 -100 -32 -29 -6 -91 -24 -138 -40 -102
-35 -161 -37 -214 -8 -43 23 -94 20 -116 -6 -7 -8 -15 -15 -19 -15 -4 0 -19
29 -35 65 -16 38 -43 78 -64 96 -33 29 -38 31 -86 24 -28 -4 -78 -9 -110 -10
-40 -2 -68 -10 -87 -24 -16 -12 -32 -21 -36 -20 -8 0 -61 65 -116 141 -39 53
-45 99 -18 134 31 39 26 84 -19 180 -22 47 -40 91 -40 98 0 7 9 21 20 31 11
10 20 26 20 36 0 18 -53 69 -72 69 -6 0 -30 10 -53 21 -46 23 -61 46 -71 110
-9 56 -38 69 -104 46 -72 -26 -131 -22 -198 13 -84 43 -166 62 -215 49 -55
-15 -67 -2 -54 56 8 35 7 53 -6 85 -9 23 -11 42 -6 46 15 9 10 57 -9 86 -10
15 -35 42 -56 60 l-38 32 87 42 c97 48 114 65 115 110 0 26 -15 47 -80 115
-75 80 -122 154 -136 216 -3 16 -9 46 -13 69 -8 43 -82 162 -130 208 -32 30
-146 76 -189 76 -15 0 -38 -9 -52 -20 -34 -26 -40 -25 -124 15 -93 45 -144 47
-178 7z m720 -6508 c20 -20 51 -43 67 -50 29 -13 29 -13 -27 -14 -52 0 -62 3
-97 35 -21 19 -44 35 -50 35 -15 0 -14 17 2 23 36 15 69 6 105 -29z m182 7 c0
-5 -7 -14 -15 -21 -13 -10 -15 -9 -15 9 0 12 6 21 15 21 8 0 15 -4 15 -9z
m-50 -66 c-7 -9 -15 -13 -17 -11 -7 7 7 26 19 26 6 0 6 -6 -2 -15z"/>
</g>
</svg>
